<?xml version="1.0" encoding="UTF-8" standalone="no"?>
<!-- Created with Inkscape (http://www.inkscape.org/) -->

<svg
   xmlns:dc="http://purl.org/dc/elements/1.1/"
   xmlns:cc="http://creativecommons.org/ns#"
   xmlns:rdf="http://www.w3.org/1999/02/22-rdf-syntax-ns#"
   xmlns:svg="http://www.w3.org/2000/svg"
   xmlns="http://www.w3.org/2000/svg"
   xmlns:xlink="http://www.w3.org/1999/xlink"
   xmlns:sodipodi="http://sodipodi.sourceforge.net/DTD/sodipodi-0.dtd"
   xmlns:inkscape="http://www.inkscape.org/namespaces/inkscape"
   width="256"
   height="256"
   id="svg2"
   version="1.1"
   inkscape:version="0.91 r13725"
   sodipodi:docname="favicon.svg"
   inkscape:export-filename="/home/jumplink/Dokumente/Arbeit/jumplink.eu/Logo/favicon.png"
   inkscape:export-xdpi="299.95438"
   inkscape:export-ydpi="299.95438">
  <defs
     id="defs4">
    <linearGradient
       id="linearGradient3791">
      <stop
         style="stop-color:#8a2fa8;stop-opacity:1;"
         offset="0"
         id="stop3793" />
      <stop
         style="stop-color:#ffffff;stop-opacity:0;"
         offset="1"
         id="stop3795" />
    </linearGradient>
    <linearGradient
       id="linearGradient3830">
      <stop
         style="stop-color:#3397b5;stop-opacity:1;"
         offset="0"
         id="stop3832" />
      <stop
         style="stop-color:#000000;stop-opacity:1;"
         offset="1"
         id="stop3834" />
    </linearGradient>
    <radialGradient
       inkscape:collect="always"
       xlink:href="#linearGradient3791"
       id="radialGradient3799"
       cx="121.06883"
       cy="692.84576"
       fx="121.06883"
       fy="692.84576"
       r="154.13387"
       gradientTransform="matrix(0.99999174,0.00406553,-0.00324393,0.7979054,2.2485461,125.38604)"
       gradientUnits="userSpaceOnUse" />
    <linearGradient
       x1="18.379"
       y1="44.98"
       gradientTransform="matrix(0.95844,0,0,0.81097,41.872,7.5367)"
       x2="18.379"
       gradientUnits="userSpaceOnUse"
       y2="3.0816"
       id="linearGradient2916-2">
      <stop
         offset="0"
         style="stop-color:#1f4b6a"
         id="stop2788-5-6" />
      <stop
         offset="1"
         style="stop-color:#4083c2"
         id="stop2790-5-4" />
    </linearGradient>
    <radialGradient
       r="20.396999"
       gradientTransform="matrix(0,1.9355,-3.0194,0,76.922,-36.994)"
       cx="23.896"
       cy="17.530001"
       gradientUnits="userSpaceOnUse"
       id="radialGradient2914-3">
      <stop
         offset="0"
         style="stop-color:#8badea"
         id="stop2778-7-4" />
      <stop
         offset=".26238"
         style="stop-color:#6396cd"
         id="stop2780-6-6" />
      <stop
         offset=".66094"
         style="stop-color:#3b7caf"
         id="stop2782-9-9" />
      <stop
         offset="1"
         style="stop-color:#194c70"
         id="stop2784-5-4" />
    </radialGradient>
    <linearGradient
       x1="28.103001"
       y1="45"
       gradientTransform="matrix(1,0,0,1.1014,2.6242e-7,-5.5128)"
       x2="28.103001"
       gradientUnits="userSpaceOnUse"
       y2="14.038"
       id="linearGradient2908-9">
      <stop
         offset="0"
         style="stop-color:#791235"
         id="stop2492-8-2-0" />
      <stop
         offset="1"
         style="stop-color:#dd3b27"
         id="stop2494-7-2-2" />
    </linearGradient>
    <linearGradient
       x1="20.052999"
       y1="8.1633997"
       gradientTransform="translate(1.2624e-6,-1)"
       x2="20.052999"
       gradientUnits="userSpaceOnUse"
       y2="48.071999"
       id="linearGradient2906-8">
      <stop
         offset="0"
         style="stop-color:#f89b7e"
         id="stop3244-6-4-2" />
      <stop
         offset=".11961"
         style="stop-color:#e35d4f"
         id="stop3246-6-8-8" />
      <stop
         offset=".81107"
         style="stop-color:#c6262e"
         id="stop3248-0-9-2" />
      <stop
         offset="1"
         style="stop-color:#690b2c"
         id="stop3250-9-0-9" />
    </linearGradient>
    <linearGradient
       x1="28.103001"
       y1="45"
       gradientTransform="matrix(1,0,0,1.1014,-8.8169e-8,-5.5128)"
       x2="28.103001"
       gradientUnits="userSpaceOnUse"
       y2="14.038"
       id="linearGradient2921">
      <stop
         offset="0"
         style="stop-color:#787878"
         id="stop4108" />
      <stop
         offset="1"
         style="stop-color:#b4b4b4"
         id="stop4110" />
    </linearGradient>
    <linearGradient
       x1="20.052999"
       y1="8.1633997"
       gradientTransform="translate(0,-1)"
       x2="20.052999"
       gradientUnits="userSpaceOnUse"
       y2="48.071999"
       id="linearGradient2919">
      <stop
         offset="0"
         style="stop-color:#fff"
         id="stop4498" />
      <stop
         offset=".87427"
         style="stop-color:#d7d7d7"
         id="stop4502" />
      <stop
         offset="1"
         style="stop-color:#999"
         id="stop4504" />
    </linearGradient>
    <linearGradient
       x1="25.577"
       y1="15"
       gradientTransform="matrix(1,0,0,1.1071,9.1183e-7,-5.6607)"
       x2="25.577"
       gradientUnits="userSpaceOnUse"
       xlink:href="#linearGradient3333-4"
       y2="44.000999"
       id="linearGradient2911" />
    <linearGradient
       x1="25.525"
       y1="30.188999"
       gradientTransform="translate(-8.8169e-8,-2.6325)"
       x2="25.525"
       gradientUnits="userSpaceOnUse"
       spreadMethod="reflect"
       y2="15.738"
       id="linearGradient2903">
      <stop
         offset="0"
         style="stop-color:#828282"
         id="stop3868" />
      <stop
         offset=".5"
         style="stop-color:#8f8f8f;stop-opacity:.63478"
         id="stop3872" />
      <stop
         offset="1"
         style="stop-color:#9d9d9d;stop-opacity:0"
         id="stop3870" />
    </linearGradient>
    <linearGradient
       x1="25.525"
       y1="30.188999"
       gradientTransform="translate(-8.8169e-8,-1.3325)"
       x2="25.525"
       gradientUnits="userSpaceOnUse"
       spreadMethod="reflect"
       xlink:href="#linearGradient3333-4"
       y2="15.738"
       id="linearGradient2900" />
    <linearGradient
       x1="23.903999"
       y1="35.75"
       gradientTransform="matrix(0.99801,0,0,1.0672,0.14376,-3.0333)"
       x2="23.903999"
       gradientUnits="userSpaceOnUse"
       y2="20.443001"
       id="linearGradient2897">
      <stop
         offset="0"
         id="stop3497" />
      <stop
         offset=".5"
         style="stop-opacity:.49804"
         id="stop3874" />
      <stop
         offset="1"
         style="stop-opacity:0"
         id="stop3499" />
    </linearGradient>
    <linearGradient
       x1="25.525"
       y1="30.188999"
       gradientTransform="translate(-8.8169e-8,-4.0466)"
       x2="25.525"
       gradientUnits="userSpaceOnUse"
       spreadMethod="reflect"
       y2="15.738"
       id="linearGradient2894">
      <stop
         offset="0"
         style="stop-color:#fff"
         id="stop3335-4-6" />
      <stop
         offset="1"
         style="stop-color:#fff;stop-opacity:0"
         id="stop3337-7-2" />
    </linearGradient>
    <linearGradient
       x1="16.625999"
       y1="15.298"
       gradientTransform="matrix(0.9986,0,0,1.0844,-0.01312,3.8059)"
       x2="20.055"
       gradientUnits="userSpaceOnUse"
       y2="24.628"
       id="linearGradient2891">
      <stop
         offset="0"
         style="stop-color:#fff"
         id="stop2687-1-9" />
      <stop
         offset="1"
         style="stop-color:#fff;stop-opacity:0"
         id="stop2689-5-4" />
    </linearGradient>
    <radialGradient
       r="117.14"
       gradientTransform="matrix(-0.065534,0,0,0.024706,-21.829,10.577)"
       cx="605.71002"
       cy="486.64999"
       gradientUnits="userSpaceOnUse"
       xlink:href="#linearGradient5060-6-8"
       id="radialGradient4553" />
    <linearGradient
       id="linearGradient5060-6-8">
      <stop
         offset="0"
         id="stop5062-3-4" />
      <stop
         offset="1"
         style="stop-opacity:0"
         id="stop5064-1-8" />
    </linearGradient>
    <radialGradient
       r="117.14"
       gradientTransform="matrix(0.065534,0,0,0.024706,-69.175,10.577)"
       cx="605.71002"
       cy="486.64999"
       gradientUnits="userSpaceOnUse"
       xlink:href="#linearGradient5060-6-8"
       id="radialGradient3023" />
    <linearGradient
       x1="302.85999"
       y1="366.64999"
       gradientTransform="matrix(0.065534,0,0,0.024706,-69.188,10.577)"
       x2="302.85999"
       gradientUnits="userSpaceOnUse"
       y2="609.51001"
       id="linearGradient3021">
      <stop
         offset="0"
         style="stop-opacity:0"
         id="stop5050-5-3" />
      <stop
         offset=".5"
         id="stop5056-9-0" />
      <stop
         offset="1"
         style="stop-opacity:0"
         id="stop5052-6-4" />
    </linearGradient>
    <linearGradient
       id="linearGradient3333-4">
      <stop
         offset="0"
         style="stop-color:#fff"
         id="stop3335-4" />
      <stop
         offset="1"
         style="stop-color:#fff;stop-opacity:0"
         id="stop3337-7" />
    </linearGradient>
    <radialGradient
       gradientTransform="matrix(0.00410056,-2.4999933,1.9999973,4.035431e-4,116.92941,65.718486)"
       gradientUnits="userSpaceOnUse"
       xlink:href="#linearGradient3701"
       id="radialGradient3707"
       fy="-38.018639"
       fx="41.060604"
       r="2.0000043"
       cy="-38.018639"
       cx="41.060604" />
    <linearGradient
       gradientTransform="matrix(0,-0.57142857,0.56704875,0,33.658909,46.857142)"
       gradientUnits="userSpaceOnUse"
       xlink:href="#linearGradient3640"
       id="linearGradient2890"
       y2="19"
       x2="12"
       y1="22"
       x1="12" />
    <linearGradient
       gradientTransform="matrix(0.50000111,0,0,1,-46.500007,25.00001)"
       gradientUnits="userSpaceOnUse"
       xlink:href="#linearGradient3640"
       id="linearGradient3648"
       y2="19"
       x2="8"
       y1="20"
       x1="8" />
    <linearGradient
       id="linearGradient3640">
      <stop
         offset="0"
         style="stop-color:#b3b3b3;stop-opacity:1"
         id="stop3642" />
      <stop
         offset="0.5"
         style="stop-color:#ffffff;stop-opacity:1"
         id="stop3650" />
      <stop
         offset="1"
         style="stop-color:#f0f0f0;stop-opacity:1"
         id="stop3644" />
    </linearGradient>
    <linearGradient
       gradientTransform="matrix(0.5000005,0,0,1,-45.500006,25.000002)"
       gradientUnits="userSpaceOnUse"
       xlink:href="#linearGradient3640"
       id="linearGradient3646"
       y2="19"
       x2="17"
       y1="20"
       x1="17" />
    <linearGradient
       gradientTransform="matrix(0.4836335,0,0,0.4836335,27.149341,-54.1605)"
       gradientUnits="userSpaceOnUse"
       xlink:href="#linearGradient3655"
       id="linearGradient3653"
       y2="30.999998"
       x2="37"
       y1="33"
       x1="12.000001" />
    <linearGradient
       gradientTransform="matrix(-6.4243348e-4,-0.17054034,0.67441484,-3.7138428e-4,32.692745,44.615647)"
       gradientUnits="userSpaceOnUse"
       xlink:href="#linearGradient6592-2-7"
       id="linearGradient3203"
       y2="12.796451"
       x2="15.706468"
       y1="0.50000191"
       x1="15.3364" />
    <linearGradient
       id="linearGradient6592-2-7">
      <stop
         offset="0"
         style="stop-color:#ffffff;stop-opacity:0.27450982"
         id="stop6594-0-2" />
      <stop
         offset="1"
         style="stop-color:#ffffff;stop-opacity:0"
         id="stop6596-2-5" />
    </linearGradient>
    <linearGradient
       gradientTransform="matrix(0.4836335,0,0,0.4836335,27.149341,-54.1605)"
       gradientUnits="userSpaceOnUse"
       xlink:href="#linearGradient3389"
       id="linearGradient3350"
       y2="31.52935"
       x2="18.406231"
       y1="29.461668"
       x1="37.015366" />
    <linearGradient
       id="linearGradient3389">
      <stop
         offset="0"
         style="stop-color:#1e1e1e;stop-opacity:1"
         id="stop3391" />
      <stop
         offset="1"
         style="stop-color:#606060;stop-opacity:1"
         id="stop3393" />
    </linearGradient>
    <linearGradient
       id="linearGradient3655">
      <stop
         offset="0"
         style="stop-color:#b4b4b4;stop-opacity:1"
         id="stop3657" />
      <stop
         offset="1"
         style="stop-color:#b4b4b4;stop-opacity:0.2"
         id="stop3659" />
    </linearGradient>
    <linearGradient
       id="linearGradient3701">
      <stop
         offset="0"
         style="stop-color:#2a2a2a;stop-opacity:1"
         id="stop3703" />
      <stop
         offset="1"
         style="stop-color:#060606;stop-opacity:1"
         id="stop3705" />
    </linearGradient>
    <filter
       style="color-interpolation-filters:sRGB"
       inkscape:collect="always"
       id="filter4045">
      <feGaussianBlur
         inkscape:collect="always"
         stdDeviation="1.2594977"
         id="feGaussianBlur4047" />
    </filter>
  </defs>
  <sodipodi:namedview
     id="base"
     pagecolor="#ffffff"
     bordercolor="#000000"
     borderopacity="1"
     inkscape:pageopacity="0"
     inkscape:pageshadow="2"
     inkscape:zoom="1"
     inkscape:cx="-1.6947505"
     inkscape:cy="-5.2877777"
     inkscape:document-units="mm"
     inkscape:current-layer="g3046"
     showgrid="true"
     inkscape:window-width="1440"
     inkscape:window-height="834"
     inkscape:window-x="0"
     inkscape:window-y="27"
     inkscape:window-maximized="1"
     fit-margin-top="0"
     fit-margin-left="0"
     fit-margin-right="0"
     fit-margin-bottom="0"
     units="cm"
     showguides="true"
     inkscape:guide-bbox="true"
     borderlayer="true"
     inkscape:snap-smooth-nodes="true" />
  <metadata
     id="metadata7">
    <rdf:RDF>
      <cc:Work
         rdf:about="">
        <dc:format>image/svg+xml</dc:format>
        <dc:type
           rdf:resource="http://purl.org/dc/dcmitype/StillImage" />
        <dc:title />
      </cc:Work>
    </rdf:RDF>
  </metadata>
  <g
     inkscape:label="Ebene 1"
     inkscape:groupmode="layer"
     id="layer1"
     transform="translate(-563.36219,-205.70484)">
    <g
       id="g3046"
       transform="translate(508.03108,-287.56958)">
      <ellipse
         ry="21.1924"
         rx="72.723541"
         cy="716.23914"
         cx="197.83846"
         id="path4053"
         style="opacity:0.22121211;fill:#000000;fill-opacity:1;stroke:none" />
      <path
         style="fill:#000000;fill-opacity:1;stroke:none;filter:url(#filter4045)"
         d="m 139.02515,613.67247 c -2.58025,0 -4.65625,2.10725 -4.65625,4.6875 0,2.58025 2.076,4.65625 4.65625,4.65625 1.46736,0 2.76849,-0.69191 3.625,-1.75 0.78283,0.70993 1.57932,1.46011 2.32813,2.17964 0.23007,1.46267 1.91537,3.53922 2.60937,7.94531 0.50382,3.19872 -2.22102,8.66157 -2.875,11.4375 -0.65398,2.77593 5.75329,7.10509 7.3125,16.65625 1.55921,9.55116 -10.28606,17.10839 -7.90625,21.84375 2.37981,4.73536 9.28687,7.89245 12.71875,9.71875 3.43188,1.8263 0.18773,9.36887 2.28125,12.375 2.09352,3.00613 3.62336,3.76021 8.0625,4.8125 4.43914,1.05229 10.33026,0.36047 17.9375,-1.25 7.60724,-1.61047 17.70538,-4.13646 21.4375,-8.625 3.73213,-4.48854 -9.06104,-45.63924 -9.5625,-52.25 -0.50146,-6.61076 -0.37577,-6.35992 0.46875,-9.5625 7.26452,-11.33807 7.53104,-13.38041 -5.34375,-11 -3.0736,0.34661 -6.35409,-1.21578 -8.34375,-2.875 -2.10236,-1.7532 -3.95317,-4.2468 -5.40625,-4.6875 -1.45308,-0.4407 -11.72314,2.01624 -18.5625,3.46875 -4.14124,0.87951 -12.03476,-0.74083 -13.49219,-0.125 -0.64099,0.186 -1.57386,-0.94326 -2.03125,-1.34375 -0.53873,-0.62374 -0.57031,-0.93947 -0.57031,-1.625 0,-2.58025 -2.10725,-4.6875 -4.6875,-4.6875 z"
         id="path4023"
         inkscape:connector-curvature="0"
         sodipodi:nodetypes="cssccssssssssssccsssccscc"
         transform="matrix(2.1192399,0,0,2.1192399,-175.46277,-770.88627)" />
      <circle
         r="9.9009943"
         cy="539.76959"
         cx="118.7778"
         style="fill:#e69d4e;fill-opacity:1;stroke:none"
         id="path3914" />
      <path
         style="fill:#e69d4e;fill-opacity:1;stroke:none"
         d="m 202.13594,538.96364 c -3.07942,-0.93395 -24.86178,4.27745 -39.35602,7.35567 -8.77628,1.86389 -27.6113,-0.96222 -30.69995,0.34287 -3.08864,1.30511 2.83031,8.21852 4.80235,20.73873 1.06771,6.77886 -4.69734,18.35006 -6.08328,24.23292 -1.38594,5.88286 12.21615,15.08125 15.52049,35.32245 3.30434,20.2412 -21.791,36.23947 -16.74761,46.27483 5.04338,10.03537 19.64323,16.75342 26.91621,20.62379 7.27298,3.87037 0.38002,19.85355 4.81669,26.22426 4.43667,6.37071 7.71844,7.93852 17.12605,10.16858 9.4076,2.23005 21.87685,0.73703 37.99841,-2.67595 16.12157,-3.41297 37.50572,-8.711 45.41498,-18.2233 7.90928,-9.51229 -19.19839,-96.74743 -20.2611,-110.75722 -1.06272,-14.00979 -0.78429,-13.45832 1.00545,-20.24535 15.39526,-24.02809 15.95398,-28.37128 -11.33079,-23.32662 -6.5137,0.73454 -13.485,-2.55085 -17.70157,-6.06713 -4.4554,-3.71546 -8.34088,-9.05458 -11.42031,-9.98853 z"
         id="path3916"
         inkscape:connector-curvature="0"
         sodipodi:nodetypes="zszszzzzzzzzzccsz" />
      <path
         style="fill:#ffffff;fill-opacity:1;stroke:none"
         d="m 203.23138,626.44921 c -7.08199,15.14464 -1.86701,64.24828 0,79.17985 1.86701,14.93157 13.80867,9.78463 20.63921,10.24235 16.88426,-2.44448 27.68546,-5.55292 31.85896,-9.62347 3.25784,-3.17748 1.59011,-6.79342 1.43901,-12.10643 -3.5374,-13.62587 -12.70989,-72.68296 -21.15754,-79.64371 -8.44763,-6.96073 -31.36458,7.56299 -32.77964,11.95141 z"
         id="path3918"
         inkscape:connector-curvature="0"
         sodipodi:nodetypes="czcsczc" />
      <circle
         r="6.8194499"
         cy="569.38812"
         cx="-185.97588"
         style="fill:#000000;fill-opacity:1;stroke:none"
         id="path3920"
         transform="scale(-1,1)" />
      <path
         style="fill:none;stroke:#e69d4e;stroke-width:6.3577199;stroke-linecap:butt;stroke-linejoin:miter;stroke-miterlimit:4;stroke-dasharray:none;stroke-opacity:1"
         d="m 135.42358,551.02103 c -10.1328,-11.349 -14.98985,-10.65891 -20.45793,-11.48793"
         id="path3924"
         inkscape:connector-curvature="0"
         sodipodi:nodetypes="cc" />
      <path
         sodipodi:nodetypes="czc"
         inkscape:connector-curvature="0"
         id="path3928"
         d="m 155.19196,693.14676 c 0,0 8.74189,2.90516 13.24525,-1.70296 4.50336,-4.60812 6.12778,-26.23636 6.12778,-26.23636"
         style="fill:none;stroke:#000000;stroke-width:0.84769601;stroke-linecap:round;stroke-linejoin:round;stroke-miterlimit:4;stroke-dasharray:none;stroke-opacity:1" />
      <path
         sodipodi:nodetypes="cssccssssssssssccsssccscc"
         inkscape:connector-curvature="0"
         id="path4006"
         d="m 119.16488,529.63294 c -5.46817,0 -9.86771,4.46577 -9.86771,9.93394 0,5.46817 4.39954,9.86771 9.86771,9.86771 3.10969,0 5.86709,-1.46632 7.68225,-3.70867 1.659,1.50451 3.34695,3.09432 4.93386,4.61918 0.48757,3.09975 4.05913,7.50046 5.52988,16.83802 1.06772,6.77885 -4.70687,18.35594 -6.09281,24.2388 -1.38594,5.88287 12.1926,15.05739 15.49694,35.29859 3.30434,20.2412 -21.79863,36.25679 -16.75524,46.29215 5.04339,10.03537 19.6811,16.726 26.95408,20.59637 7.27298,3.87036 0.39785,19.85488 4.83452,26.22559 4.43667,6.37071 7.67877,7.96879 17.08637,10.19884 9.4076,2.23006 21.8923,0.76392 38.01387,-2.64905 16.12156,-3.41297 37.52194,-8.76615 45.4312,-18.27844 7.90928,-9.5123 -19.20252,-96.7205 -20.26523,-110.73029 -1.06271,-14.00979 -0.79635,-13.4782 0.99339,-20.26523 15.39527,-24.02809 15.96008,-28.3563 -11.32468,-23.31164 -6.5137,0.73455 -13.46585,-2.57653 -17.68241,-6.09282 -4.45541,-3.71545 -8.37772,-8.99998 -11.45714,-9.93393 -3.07943,-0.93395 -24.84415,4.27289 -39.33839,7.35111 -8.77629,1.86389 -25.50455,-1.57 -28.59319,-0.2649 -1.35841,0.39417 -3.33539,-1.999 -4.30471,-2.84773 -1.1417,-1.32186 -1.20862,-1.99097 -1.20862,-3.44377 0,-5.46817 -4.46577,-9.93393 -9.93394,-9.93393 z"
         style="fill:none;stroke:#000000;stroke-width:2.11924005;stroke-miterlimit:4;stroke-dasharray:none;stroke-opacity:1" />
      <ellipse
         ry="38.961754"
         rx="40.272964"
         cy="540.26758"
         cx="119.41054"
         style="opacity:0.22121211;fill:#e69d4e;fill-opacity:1;stroke:none"
         id="path4121" />
      <ellipse
         ry="28.342148"
         rx="29.295969"
         cy="540.26746"
         cx="119.41051"
         id="path4126"
         style="opacity:0.22121211;fill:#e69d4e;fill-opacity:1;stroke:none" />
      <circle
         r="6.8194499"
         cy="569.38812"
         cx="-185.97588"
         transform="scale(-1,1)"
         id="path3960"
         style="fill:#000000;fill-opacity:1;stroke:none" />
      <circle
         r="6.8194499"
         cy="558.89838"
         cx="-208.07918"
         style="fill:#000000;fill-opacity:1;stroke:none"
         id="path3962"
         transform="scale(-1,1)" />
    </g>
    <g
       transform="translate(-9.167092,209.27393)"
       id="layer10" />
    <flowRoot
       transform="translate(55.33111,554.39264)"
       style="font-style:normal;font-variant:normal;font-weight:normal;font-stretch:normal;font-size:14px;line-height:125%;font-family:Ubuntu;-inkscape-font-specification:Ubuntu;text-align:center;letter-spacing:0px;word-spacing:0px;text-anchor:middle;fill:#000000;fill-opacity:1;stroke:none"
       id="flowRoot3138"
       xml:space="preserve"><flowRegion
         id="flowRegion3140"><rect
           y="-122.11811"
           x="650"
           height="129.5"
           width="179"
           id="rect3142" /></flowRegion><flowPara
         id="flowPara3144" /></flowRoot>    <flowRoot
       xml:space="preserve"
       id="flowRoot3130"
       style="font-style:normal;font-variant:normal;font-weight:normal;font-stretch:normal;font-size:14px;line-height:125%;font-family:Ubuntu;-inkscape-font-specification:Ubuntu;text-align:center;letter-spacing:0px;word-spacing:0px;text-anchor:middle;fill:#000000;fill-opacity:1;stroke:none"
       transform="translate(55.331108,554.39264)"><flowRegion
         id="flowRegion3132"><rect
           id="rect3134"
           width="252"
           height="110"
           x="112"
           y="41.881886" /></flowRegion><flowPara
         id="flowPara3136" /></flowRoot>  </g>
</svg>
